<?xml version="1.0" encoding="UTF-8" standalone="no"?>
<!DOCTYPE svg PUBLIC "-//W3C//DTD SVG 1.1//EN" "http://www.w3.org/Graphics/SVG/1.1/DTD/svg11.dtd">
<svg xmlns:xl="http://www.w3.org/1999/xlink" version="1.1" xmlns="http://www.w3.org/2000/svg" xmlns:dc="http://purl.org/dc/elements/1.1/" viewBox="-42 -260 400 300" width="400" height="300">
  <defs/>
  <g id="logo_white" stroke-dasharray="none" fill="none" fill-opacity="1" stroke="none" stroke-opacity="1">
    <title>logo white</title>
    <g id="logo_white_better_blocks">
      <title>better blocks</title>
      <g id="Group_129">
        <g id="Group_128">
          <title>m group</title>
          <g id="Graphic_127">
            <path d="M -14.432021 -11.237241 L -14.432021 34.56276 L 164.36798 34.56276 L 164.36798 -11.237241 Z M 147.57457 1.0561691 C 153.43246 6.914029 153.43246 16.41149 147.57457 22.26935 C 141.71671 28.12724 132.21925 28.12724 126.36139 22.26935 C 120.5035 16.41149 120.5035 6.914029 126.36139 1.0561691 C 132.21925 -4.801721 141.71671 -4.801721 147.57457 1.0561691 M 105.77457 1.0561691 C 111.63246 6.914029 111.63246 16.41149 105.77457 22.26935 C 99.91671 28.12724 90.41925 28.12724 84.56139 22.26935 C 78.7035 16.41149 78.7035 6.914029 84.56139 1.0561691 C 90.41925 -4.801721 99.91671 -4.801721 105.77457 1.0561691 M 53.36678 -3.337241 L 53.36678 -3.337241 C 54.74749 -3.337241 55.86678 -2.2179527 55.86678 -.8372409 L 55.86678 24.16276 C 55.86678 25.54347 54.74749 26.66276 53.36678 26.66276 C 51.98607 26.66276 50.86678 25.54347 50.86678 24.16276 L 50.86678 -.8372409 C 50.86678 -2.2179527 51.98607 -3.337241 53.36678 -3.337241 Z M 10.966779 -3.337241 L 10.966779 -3.337241 C 12.347491 -3.337241 13.466779 -2.2179527 13.466779 -.8372409 L 13.466779 24.16276 C 13.466779 25.54347 12.347491 26.66276 10.966779 26.66276 C 9.586067 26.66276 8.466779 25.54347 8.466779 24.16276 L 8.466779 -.8372409 C 8.466779 -2.2179527 9.586067 -3.337241 10.966779 -3.337241 Z" fill="white"/>
          </g>
          <g id="Graphic_114">
            <circle cx="95.02354" cy="11.662759" r="10.5555724222978" fill="white"/>
          </g>
          <g id="Graphic_113">
            <circle cx="136.82777" cy="11.662759" r="10.5555724222978" fill="white"/>
          </g>
        </g>
        <g id="Group_72">
          <title>last a group</title>
          <g id="Graphic_76">
            <circle cx="192.3038" cy="11.583005" r="12.5000199737737" stroke="white" stroke-linecap="round" stroke-linejoin="round" stroke-width="5"/>
          </g>
          <g id="Graphic_75">
            <circle cx="233.75603" cy="11.583005" r="12.5000199737737" stroke="white" stroke-linecap="round" stroke-linejoin="round" stroke-width="5"/>
          </g>
          <g id="Graphic_74">
            <circle cx="275.20825" cy="11.583005" r="12.5000199737737" stroke="white" stroke-linecap="round" stroke-linejoin="round" stroke-width="5"/>
          </g>
          <g id="Graphic_73">
            <circle cx="316.66047" cy="11.742514" r="12.5000199737737" stroke="white" stroke-linecap="round" stroke-linejoin="round" stroke-width="5"/>
          </g>
        </g>
        <g id="Graphic_54">
          <text transform="translate(-14.559906 -320.20457)" fill="white">
            <tspan font-family="Helvetica Neue" font-size="156" fill="white" x="4192202e-19" y="149">a</tspan>
          </text>
        </g>
        <g id="Graphic_53">
          <text transform="translate(164.89227 -320.5)" fill="white">
            <tspan font-family="Helvetica Neue" font-size="156" fill="white" x="4192202e-19" y="149">c</tspan>
          </text>
        </g>
        <g id="Graphic_52">
          <text transform="translate(-12.124504 -165.74308)" fill="white">
            <tspan font-family="Helvetica Neue" font-size="156" fill="white" x="0" y="149">m</tspan>
          </text>
        </g>
        <g id="Graphic_51">
          <text transform="translate(167.81773 -165.79293)" fill="white">
            <tspan font-family="Helvetica Neue" font-size="156" fill="white" x="4192202e-19" y="149">a</tspan>
          </text>
        </g>
        <g id="Group_67">
          <title>c group</title>
          <g id="Graphic_71">
            <circle cx="193.4401" cy="-142.49198" r="12.5000199737737" stroke="white" stroke-linecap="round" stroke-linejoin="round" stroke-width="5"/>
          </g>
          <g id="Graphic_70">
            <circle cx="234.8923" cy="-142.49198" r="12.5000199737737" stroke="white" stroke-linecap="round" stroke-linejoin="round" stroke-width="5"/>
          </g>
          <g id="Graphic_69">
            <circle cx="317.79675" cy="-142.33247" r="12.5000199737737" stroke="white" stroke-linecap="round" stroke-linejoin="round" stroke-width="5"/>
          </g>
          <g id="Line_68">
            <line x1="275.84453" y1="-130.37848" x2="275.84453" y2="-155.37848" stroke="white" stroke-linecap="round" stroke-linejoin="round" stroke-width="5"/>
          </g>
        </g>
        <g id="Group_111">
          <title>a group</title>
          <g id="Graphic_96">
            <path d="M -14.559907 -165.50548 L -14.559907 -119.70548 L 164.2401 -119.70548 L 164.2401 -165.50548 Z M 22.046683 -153.21207 C 27.904573 -147.3542 27.904573 -137.85675 22.046683 -131.99889 C 16.188823 -126.141 6.691363 -126.141 .8335028 -131.99889 C -5.024387 -137.85675 -5.024387 -147.3542 .8335028 -153.21207 C 6.691363 -159.06996 16.188823 -159.06996 22.046683 -153.21207 M 63.84668 -153.21207 C 69.70457 -147.3542 69.70457 -137.85675 63.84668 -131.99889 C 57.98882 -126.141 48.491363 -126.141 42.633503 -131.99889 C 36.775613 -137.85675 36.775613 -147.3542 42.633503 -153.21207 C 48.491363 -159.06996 57.98882 -159.06996 63.84668 -153.21207 M 105.64668 -153.21207 C 111.50457 -147.3542 111.50457 -137.85675 105.64668 -131.99889 C 99.78882 -126.141 90.29136 -126.141 84.4335 -131.99889 C 78.57561 -137.85675 78.57561 -147.3542 84.4335 -153.21207 C 90.29136 -159.06996 99.78882 -159.06996 105.64668 -153.21207 M 147.44668 -153.21207 C 153.30457 -147.3542 153.30457 -137.85675 147.44668 -131.99889 C 141.58882 -126.141 132.09136 -126.141 126.2335 -131.99889 C 120.37561 -137.85675 120.37561 -147.3542 126.2335 -153.21207 C 132.09136 -159.06996 141.58882 -159.06996 147.44668 -153.21207" fill="white"/>
          </g>
          <g id="Graphic_94">
            <circle cx="11.491418" cy="-142.60548" r="10.5555724222978" fill="white"/>
          </g>
          <g id="Graphic_108">
            <circle cx="53.29565" cy="-142.60548" r="10.5555724222978" fill="white"/>
          </g>
          <g id="Graphic_109">
            <circle cx="95.09988" cy="-142.60548" r="10.5555724222978" fill="white"/>
          </g>
          <g id="Graphic_110">
            <circle cx="136.90411" cy="-142.60548" r="10.5555724222978" fill="white"/>
          </g>
        </g>
      </g>
    </g>
  </g>
</svg>
